<svg width="64" height="64" viewBox="0 0 64 64" fill="none" xmlns="http://www.w3.org/2000/svg">
<g clip-path="url(#clip0_447_69)">
<path d="M36.54 56.3325H14.074C12.254 56.3325 10.8405 54.7464 11.0491 52.9384L14.9139 19.4434C15.0912 17.907 16.3922 16.7475 17.9388 16.7475H47.1975C48.8792 16.7475 50.2425 18.1108 50.2425 19.7925V33.3949M36.54 56.3325L34.4765 52.2055C33.8903 51.0332 34.1201 49.6174 35.0469 48.6906L49.3506 34.3868C49.9217 33.8158 50.6962 33.495 51.5038 33.495H59.3775C61.0592 33.495 62.4225 34.8583 62.4225 36.54V45.9362C62.4225 46.7438 62.1017 47.5183 61.5306 48.0893L47.6413 61.9787C46.5276 63.0923 44.7486 63.173 43.5388 62.1648L36.54 56.3325ZM12.18 51.765H33.495M44.1525 53.2875L51.765 45.675M21.315 21.315V15.225C21.315 10.1798 26.0865 6.08997 31.9725 6.08997C37.8584 6.08997 42.63 10.1798 42.63 15.225V21.315M47.1975 44.9137C47.1975 46.175 46.175 47.1975 44.9137 47.1975C43.6524 47.1975 42.63 46.175 42.63 44.9137C42.63 43.6524 43.6524 42.63 44.9137 42.63C46.175 42.63 47.1975 43.6524 47.1975 44.9137ZM53.2875 54.0487C53.2875 55.31 52.265 56.3325 51.0037 56.3325C49.7424 56.3325 48.72 55.31 48.72 54.0487C48.72 52.7874 49.7424 51.765 51.0037 51.765C52.265 51.765 53.2875 52.7874 53.2875 54.0487ZM59.3775 38.8237C59.3775 40.085 58.355 41.1075 57.0937 41.1075C55.8324 41.1075 54.81 40.085 54.81 38.8237C54.81 37.5624 55.8324 36.54 57.0937 36.54C58.355 36.54 59.3775 37.5624 59.3775 38.8237Z" stroke="#3D8AF8" stroke-width="3.045" stroke-linecap="round"/>
</g>
<defs>
<clipPath id="clip0_447_69">
<rect width="64" height="64"/>
</clipPath>
</defs>
</svg>
